<mxfile host="Electron" modified="2023-12-18T02:54:20.828Z" agent="Mozilla/5.0 (Windows NT 10.0; Win64; x64) AppleWebKit/537.36 (KHTML, like Gecko) draw.io/22.1.2 Chrome/114.0.5735.289 Electron/25.9.4 Safari/537.36" etag="Aw0hZyarj2BGtsMPjD0L" version="22.1.2" type="device">
  <diagram name="Page-1" id="yDm_fk6TP922wjxOswY0">
    <mxGraphModel dx="406" dy="238" grid="1" gridSize="10" guides="1" tooltips="1" connect="1" arrows="1" fold="1" page="1" pageScale="1" pageWidth="850" pageHeight="1100" math="0" shadow="0">
      <root>
        <mxCell id="0" />
        <mxCell id="1" parent="0" />
        <mxCell id="ql5bJYzX-HCdSsMvNmTN-38" value="" style="rounded=0;whiteSpace=wrap;html=1;" parent="1" vertex="1">
          <mxGeometry x="140" y="230" width="260" height="140" as="geometry" />
        </mxCell>
        <mxCell id="ql5bJYzX-HCdSsMvNmTN-1" value="func(" style="text;html=1;strokeColor=none;fillColor=none;align=right;verticalAlign=middle;whiteSpace=wrap;rounded=0;" parent="1" vertex="1">
          <mxGeometry x="150" y="240" width="30" height="30" as="geometry" />
        </mxCell>
        <mxCell id="ql5bJYzX-HCdSsMvNmTN-4" value="" style="rounded=0;whiteSpace=wrap;html=1;fillColor=#FF8000;" parent="1" vertex="1">
          <mxGeometry x="180" y="245.24" width="30" height="20" as="geometry" />
        </mxCell>
        <mxCell id="ql5bJYzX-HCdSsMvNmTN-11" value=")" style="text;html=1;strokeColor=none;fillColor=none;align=left;verticalAlign=middle;whiteSpace=wrap;rounded=0;" parent="1" vertex="1">
          <mxGeometry x="210" y="240" width="10" height="30" as="geometry" />
        </mxCell>
        <mxCell id="ql5bJYzX-HCdSsMvNmTN-17" value="" style="shape=flexArrow;endArrow=classic;html=1;rounded=0;exitX=0;exitY=0.5;exitDx=0;exitDy=0;" parent="1" edge="1">
          <mxGeometry width="50" height="50" relative="1" as="geometry">
            <mxPoint x="220" y="254.8" as="sourcePoint" />
            <mxPoint x="270" y="254.8" as="targetPoint" />
          </mxGeometry>
        </mxCell>
        <mxCell id="na5M3DxnnnXHPQN4cRmD-3" value="" style="rounded=0;whiteSpace=wrap;html=1;fillColor=#00CC00;" vertex="1" parent="1">
          <mxGeometry x="280" y="245" width="30" height="20" as="geometry" />
        </mxCell>
        <mxCell id="na5M3DxnnnXHPQN4cRmD-11" value="func(" style="text;html=1;strokeColor=none;fillColor=none;align=right;verticalAlign=middle;whiteSpace=wrap;rounded=0;" vertex="1" parent="1">
          <mxGeometry x="150" y="280" width="30" height="30" as="geometry" />
        </mxCell>
        <mxCell id="na5M3DxnnnXHPQN4cRmD-12" value="" style="rounded=0;whiteSpace=wrap;html=1;fillColor=#FF8000;" vertex="1" parent="1">
          <mxGeometry x="180" y="285.24" width="30" height="20" as="geometry" />
        </mxCell>
        <mxCell id="na5M3DxnnnXHPQN4cRmD-13" value=")" style="text;html=1;strokeColor=none;fillColor=none;align=left;verticalAlign=middle;whiteSpace=wrap;rounded=0;" vertex="1" parent="1">
          <mxGeometry x="250" y="280" width="10" height="30" as="geometry" />
        </mxCell>
        <mxCell id="na5M3DxnnnXHPQN4cRmD-14" value="" style="shape=flexArrow;endArrow=classic;html=1;rounded=0;exitX=0;exitY=0.5;exitDx=0;exitDy=0;" edge="1" parent="1">
          <mxGeometry width="50" height="50" relative="1" as="geometry">
            <mxPoint x="260" y="294.8" as="sourcePoint" />
            <mxPoint x="310" y="294.8" as="targetPoint" />
          </mxGeometry>
        </mxCell>
        <mxCell id="na5M3DxnnnXHPQN4cRmD-15" value="" style="rounded=0;whiteSpace=wrap;html=1;fillColor=#66FF66;" vertex="1" parent="1">
          <mxGeometry x="320" y="285" width="30" height="20" as="geometry" />
        </mxCell>
        <mxCell id="na5M3DxnnnXHPQN4cRmD-16" value="" style="rounded=0;whiteSpace=wrap;html=1;fillColor=#FFB366;" vertex="1" parent="1">
          <mxGeometry x="220" y="285.24" width="30" height="20" as="geometry" />
        </mxCell>
        <mxCell id="na5M3DxnnnXHPQN4cRmD-17" value="," style="text;html=1;strokeColor=none;fillColor=none;align=left;verticalAlign=middle;whiteSpace=wrap;rounded=0;" vertex="1" parent="1">
          <mxGeometry x="210" y="280" width="10" height="30" as="geometry" />
        </mxCell>
        <mxCell id="na5M3DxnnnXHPQN4cRmD-18" value="func(" style="text;html=1;strokeColor=none;fillColor=none;align=right;verticalAlign=middle;whiteSpace=wrap;rounded=0;" vertex="1" parent="1">
          <mxGeometry x="150" y="325" width="30" height="30" as="geometry" />
        </mxCell>
        <mxCell id="na5M3DxnnnXHPQN4cRmD-19" value="" style="rounded=0;whiteSpace=wrap;html=1;fillColor=#FF8000;" vertex="1" parent="1">
          <mxGeometry x="180" y="330.24" width="30" height="20" as="geometry" />
        </mxCell>
        <mxCell id="na5M3DxnnnXHPQN4cRmD-20" value=")" style="text;html=1;strokeColor=none;fillColor=none;align=left;verticalAlign=middle;whiteSpace=wrap;rounded=0;" vertex="1" parent="1">
          <mxGeometry x="250" y="325" width="10" height="30" as="geometry" />
        </mxCell>
        <mxCell id="na5M3DxnnnXHPQN4cRmD-21" value="" style="shape=flexArrow;endArrow=classic;html=1;rounded=0;exitX=0;exitY=0.5;exitDx=0;exitDy=0;" edge="1" parent="1">
          <mxGeometry width="50" height="50" relative="1" as="geometry">
            <mxPoint x="260" y="339.8" as="sourcePoint" />
            <mxPoint x="310" y="339.8" as="targetPoint" />
          </mxGeometry>
        </mxCell>
        <mxCell id="na5M3DxnnnXHPQN4cRmD-22" value="" style="rounded=0;whiteSpace=wrap;html=1;fillColor=#66FF66;" vertex="1" parent="1">
          <mxGeometry x="320" y="330" width="30" height="20" as="geometry" />
        </mxCell>
        <mxCell id="na5M3DxnnnXHPQN4cRmD-23" value="" style="rounded=0;whiteSpace=wrap;html=1;fillColor=#FFB366;" vertex="1" parent="1">
          <mxGeometry x="220" y="330.24" width="30" height="20" as="geometry" />
        </mxCell>
        <mxCell id="na5M3DxnnnXHPQN4cRmD-24" value="," style="text;html=1;strokeColor=none;fillColor=none;align=left;verticalAlign=middle;whiteSpace=wrap;rounded=0;" vertex="1" parent="1">
          <mxGeometry x="210" y="325" width="10" height="30" as="geometry" />
        </mxCell>
        <mxCell id="na5M3DxnnnXHPQN4cRmD-25" value="(" style="text;html=1;strokeColor=none;fillColor=none;align=right;verticalAlign=middle;whiteSpace=wrap;rounded=0;" vertex="1" parent="1">
          <mxGeometry x="310" y="325" width="10" height="30" as="geometry" />
        </mxCell>
        <mxCell id="na5M3DxnnnXHPQN4cRmD-27" value="" style="rounded=0;whiteSpace=wrap;html=1;fillColor=#00CC00;" vertex="1" parent="1">
          <mxGeometry x="360" y="330" width="30" height="20" as="geometry" />
        </mxCell>
        <mxCell id="na5M3DxnnnXHPQN4cRmD-28" value="," style="text;html=1;strokeColor=none;fillColor=none;align=left;verticalAlign=middle;whiteSpace=wrap;rounded=0;" vertex="1" parent="1">
          <mxGeometry x="350" y="325" width="10" height="30" as="geometry" />
        </mxCell>
        <mxCell id="na5M3DxnnnXHPQN4cRmD-29" value=")" style="text;html=1;strokeColor=none;fillColor=none;align=left;verticalAlign=middle;whiteSpace=wrap;rounded=0;" vertex="1" parent="1">
          <mxGeometry x="390" y="325" width="10" height="30" as="geometry" />
        </mxCell>
      </root>
    </mxGraphModel>
  </diagram>
</mxfile>
